{"title":"Dr.Seuss.The.Lorax.2012.TS.XviD.AC3- ADTRG","uid":7130288,"size":801966988,"categoryP":"video","categoryS":"movies","magnet":"?xt=urn:btih:367c8e7b0a62813cbfca141c0c92a6c198fb564b&amp;dn=Dr.Seuss.The.Lorax.2012.TS.XviD.AC3-+ADTRG&amp;tr=udp%3A%2F%2Ftracker.openbittorrent.com%3A80&amp;tr=udp%3A%2F%2Fopen.demonii.com%3A1337&amp;tr=udp%3A%2F%2Ftracker.coppersurfer.tk%3A6969&amp;tr=udp%3A%2F%2Fexodus.desync.com%3A6969","seeders":1,"leechers":0,"uploader":"LegendET","files":3,"time":1332684087,"description":" &lt;a href=&quot;\nhttp://www.shotpix.com/images/92216271064441886570.jpg&quot; rel=&quot;nofollow&quot; target=&quot;_NEW&quot;&gt;\nhttp://www.shotpix.com/images/92216271064441886570.jpg&lt;/a&gt;\n\nDr.Seuss.The.Lorax.2012.TS.XviD.AC3-ADTRG\n\nA 12-year-old boy searches for the one thing that will enable him to win the affection of the girl of his dreams. To find it he must discover the story of the Lorax, the grumpy yet charming creature who fights to protect his world.  \n &lt;a href=&quot;\nhttp://www.imdb.com/title/tt1482459/&quot; rel=&quot;nofollow&quot; target=&quot;_NEW&quot;&gt;\nhttp://www.imdb.com/title/tt1482459/&lt;/a&gt;\n\nSource - Cam    LUM1X              Thanks\nSource - Line   Dragon Exclusive   Thanks\n\n\nComplete name                            : Dr.Seuss.The.Lorax.2012.TS.XviD.AC3-ADTRG.avi\nFormat                                   : AVI\nFormat/Info                              : Audio Video Interleave\nFile size                                : 765 MiB\nDuration                                 : 1h 18mn\nOverall bit rate                         : 1 364 Kbps\nWriting library                          : VirtualDub build 34703/release\n\nVideo\nID                                       : 0\nFormat                                   : MPEG-4 Visual\nCodec ID                                 : XVID\nDuration                                 : 1h 18mn\nBit rate                                 : 1 163 Kbps\nWidth                                    : 720 pixels\nHeight                                   : 336 pixels\nDisplay aspect ratio                     : 2.2:1\nFrame rate                               : 25.000 fps\nStream size                              : 652 MiB (85%)\nWriting library                          : XviD 1.2.1 (UTC 2008-12-04)\n\nAudio\nID                                       : 1\nFormat                                   : AC-3\nBit rate                                 : 192 Kbps\nChannel(s)                               : 2 channels\nChannel positions                        : Front: L R\nSampling rate                            : 48.0 KHz\nStream size                              : 108 MiB (14%)\n\n\n\n\nEncoder - LiMeY\nIt ain't easy being cheesy, that said here goes.\nadded life to video, blah blah blah \naudio was a pain to sync, source cam was butchered.\nJust remember, Everyday day im shuffle'n\nyou know where we are, come and say hi \n &lt;a href=&quot;\nhttp://www.shotpix.com/images/55607477883143677679.png&quot; rel=&quot;nofollow&quot; target=&quot;_NEW&quot;&gt;\nhttp://www.shotpix.com/images/55607477883143677679.png&lt;/a&gt; &lt;a href=&quot;\nhttp://www.shotpix.com/images/14476673832080136555.png&quot; rel=&quot;nofollow&quot; target=&quot;_NEW&quot;&gt;\nhttp://www.shotpix.com/images/14476673832080136555.png&lt;/a&gt; &lt;a href=&quot;\nhttp://www.shotpix.com/images/57148841242587907491.png&quot; rel=&quot;nofollow&quot; target=&quot;_NEW&quot;&gt;\nhttp://www.shotpix.com/images/57148841242587907491.png&lt;/a&gt; &lt;a href=&quot;\nhttp://www.shotpix.com/images/39440469098805809238.png&quot; rel=&quot;nofollow&quot; target=&quot;_NEW&quot;&gt;\nhttp://www.shotpix.com/images/39440469098805809238.png&lt;/a&gt; &lt;a href=&quot;\nhttp://www.shotpix.com/images/82230094961917691569.png&quot; rel=&quot;nofollow&quot; target=&quot;_NEW&quot;&gt;\nhttp://www.shotpix.com/images/82230094961917691569.png&lt;/a&gt; &lt;a href=&quot;\nhttp://www.shotpix.com/images/00663740602145065540.png&quot; rel=&quot;nofollow&quot; target=&quot;_NEW&quot;&gt;\nhttp://www.shotpix.com/images/00663740602145065540.png&lt;/a&gt;\n\n\n\nDont fear the Atomic Dragon, Embrace it  \n\n\nGreetz to DragonMaster,cOOkies,Mr Geek,AnimeKing,Cush,NoWoRRiEs Rayne, Mr &amp; Mrs IrNbRu and the rest of the crew\n\nRespect to CM8,Goon,Hope,mSD,InfernO,legend-rg and maybe a few more \n[/center]","torrent":{"xt":"urn:btih:367c8e7b0a62813cbfca141c0c92a6c198fb564b","amp;dn":"Dr.Seuss.The.Lorax.2012.TS.XviD.AC3-+ADTRG","amp;tr":["udp%3A%2F%2Ftracker.openbittorrent.com%3A80","udp%3A%2F%2Fopen.demonii.com%3A1337","udp%3A%2F%2Ftracker.coppersurfer.tk%3A6969","udp%3A%2F%2Fexodus.desync.com%3A6969"],"infoHash":"367c8e7b0a62813cbfca141c0c92a6c198fb564b","infoHashBuffer":{"type":"Buffer","data":[54,124,142,123,10,98,129,60,191,202,20,28,12,146,166,193,152,251,86,75]},"announce":[],"urlList":[]}}